<svg width="115" height="32" viewBox="0 0 115 32" fill="none" xmlns="http://www.w3.org/2000/svg">
<path d="M21.4966 22.8975L23.5843 18.9328L25.6959 22.8975H32L25.7231 10.7857L19.334 22.8975H21.4966ZM24.6554 16.896L25.7095 14.8966L28.8718 20.9967H26.8384L24.6554 16.896Z" fill="url(#paint0_radial_117_4470)"/>
<path d="M17.9909 20.8743L24.2644 8.76251H17.9603L15.8487 12.7272L13.7609 8.76251H7.65742L13.5705 20.9933H11.6527L6.27691 10.7857L0 22.8975H6.30411L8.41568 18.9327L10.5035 22.8975H16.6069L10.6973 10.6667H12.615L17.9909 20.8743ZM19.1062 10.6667H21.1395L17.9773 16.7668L16.9232 14.7674L19.1062 10.6667ZM5.16502 20.9967H3.13165L6.29391 14.8966L7.348 16.896L5.16502 20.9967Z" fill="url(#paint1_radial_117_4470)"/>
<path d="M8.41915 18.9294L7.74929 20.1875L6.6748 18.1507L7.34806 16.896L8.41915 18.9294Z" fill="url(#paint2_linear_117_4470)"/>
<path d="M23.5845 18.9294L24.2543 20.1875L25.3322 18.1507L24.659 16.896L23.5845 18.9294Z" fill="url(#paint3_linear_117_4470)"/>
<path d="M15.8521 12.7238L16.5219 11.4691L17.5964 13.5059L16.9231 14.7606L15.8521 12.7238Z" fill="url(#paint4_linear_117_4470)"/>
<path d="M45.8398 10.2559V11.2355H41.5742V21.7514H40.2656V11.2355H36V10.2559H45.8398Z" fill="white"/>
<path d="M59.0971 13.7064C59.0971 14.569 58.8339 15.2489 58.3076 15.746C57.7813 16.2431 57.0904 16.6049 56.2315 16.8242C56.4361 17.0472 56.703 17.3433 57.0283 17.7198C57.3536 18.0963 57.6899 18.5093 58.0371 18.9552C58.3844 19.4012 58.7206 19.869 59.0569 20.3552C59.3895 20.8413 59.671 21.3055 59.9013 21.7478H58.4977C58.2272 21.3055 57.9384 20.8632 57.6241 20.421C57.3097 19.9787 56.9881 19.551 56.6628 19.1343C56.3375 18.7213 56.0194 18.3338 55.7124 17.9829C55.4054 17.6284 55.1349 17.3214 54.9046 17.0545C54.4952 17.0874 54.0859 17.1057 53.6728 17.1057H51.5199V21.7514H50.2113V10.4715C50.6719 10.3619 51.2129 10.2814 51.8343 10.2303C52.4556 10.1791 53.0295 10.1572 53.5558 10.1572C55.3871 10.1572 56.7688 10.4569 57.6972 11.0527C58.6256 11.6485 59.0898 12.533 59.0898 13.7064H59.0971ZM53.7167 11.1368C53.2305 11.1368 52.8029 11.1514 52.4374 11.177C52.0718 11.2062 51.7685 11.2281 51.5236 11.2501V16.1444H53.3292C53.9323 16.1444 54.5025 16.1188 55.0399 16.0713C55.5772 16.0201 56.045 15.9104 56.4435 15.7387C56.8419 15.5669 57.1562 15.322 57.3865 15.0003C57.6168 14.6786 57.7337 14.2437 57.7337 13.6917C57.7337 13.1837 57.6168 12.7633 57.3865 12.4307C57.1562 12.0981 56.8528 11.8349 56.4837 11.6412C56.1108 11.4475 55.6868 11.3159 55.2043 11.2428C54.7255 11.1697 54.2284 11.1368 53.7167 11.1368Z" fill="white"/>
<path d="M72.1864 17.6357C71.6929 16.4953 71.2141 15.4353 70.7499 14.452C70.282 13.4688 69.8105 12.5002 69.328 11.5498C68.8456 12.5038 68.3777 13.4724 67.9208 14.4557C67.4639 15.4389 66.9924 16.4989 66.5026 17.6357L66.0932 18.597C65.8702 19.0941 65.6546 19.6022 65.4389 20.1249C65.2269 20.6476 65.0003 21.1885 64.7627 21.7478H63.3993C63.9037 20.5525 64.3826 19.4377 64.8321 18.4033C65.2817 17.3689 65.724 16.3929 66.1553 15.4682C66.5866 14.5471 67.018 13.6588 67.4456 12.8108C67.8733 11.9592 68.3192 11.1075 68.7907 10.2522H69.9421C70.41 11.1039 70.8596 11.9555 71.2799 12.8072C71.7003 13.6588 72.1279 14.5471 72.5629 15.4682C72.9979 16.3893 73.4365 17.3689 73.8824 18.4033C74.3283 19.4377 74.8181 20.5525 75.3554 21.7478H73.9117C73.6558 21.1849 73.4255 20.6403 73.2099 20.1176C72.9979 19.5949 72.7932 19.0905 72.5994 18.5934L72.1864 17.632V17.6357Z" fill="white"/>
<path d="M99.1836 17.6357C98.6902 16.4953 98.2113 15.4353 97.7471 14.452C97.2792 13.4688 96.8077 12.5002 96.3252 11.5498C95.8428 12.5038 95.3749 13.4724 94.918 14.4557C94.4611 15.4389 93.9896 16.4989 93.4998 17.6357L93.0904 18.597C92.8674 19.0941 92.6518 19.6022 92.4361 20.1249C92.2241 20.6476 91.9975 21.1885 91.7599 21.7478H90.3965C90.9009 20.5525 91.3798 19.4377 91.8294 18.4033C92.2789 17.3689 92.7212 16.3929 93.1525 15.4682C93.5838 14.5471 94.0152 13.6588 94.4428 12.8108C94.8705 11.9592 95.3164 11.1075 95.7879 10.2522H96.9393C97.4072 11.1039 97.8568 11.9555 98.2771 12.8072C98.6975 13.6588 99.1251 14.5471 99.5601 15.4682C99.9951 16.3893 100.434 17.3689 100.88 18.4033C101.326 19.4377 101.815 20.5525 102.353 21.7478H100.909C100.653 21.1849 100.423 20.6403 100.207 20.1176C99.9951 19.5949 99.7904 19.0905 99.5966 18.5934L99.1836 17.632V17.6357Z" fill="white"/>
<path d="M78.5209 10.2559C78.9047 11.2391 79.2775 12.1712 79.6357 13.0484C79.9976 13.9257 80.3485 14.7773 80.6957 15.5998C81.043 16.4222 81.3939 17.23 81.7521 18.0231C82.1066 18.8163 82.4941 19.6132 82.9108 20.421C83.3092 19.6278 83.6893 18.8346 84.0512 18.0414C84.4131 17.2482 84.7713 16.4441 85.1258 15.618C85.4804 14.7956 85.8349 13.9403 86.1895 13.0594C86.544 12.1748 86.9132 11.2391 87.3007 10.2522H88.686C88.0975 11.707 87.5675 12.979 87.096 14.0719C86.6245 15.1648 86.1858 16.1553 85.7874 17.0399C85.389 17.9245 85.0052 18.7432 84.6397 19.4889C84.2742 20.2345 83.894 20.9875 83.4956 21.7478H82.2675C81.88 20.9802 81.4999 20.2236 81.127 19.4779C80.7542 18.7323 80.3631 17.9171 79.9574 17.0326C79.5517 16.148 79.113 15.1611 78.6452 14.0646C78.1773 12.9717 77.6473 11.6997 77.0588 10.2486H78.5209V10.2559Z" fill="white"/>
<path d="M109.725 21.0204C110.763 21.0204 111.571 20.8559 112.149 20.5306C112.726 20.2053 113.015 19.6753 113.015 18.9443C113.015 18.5239 112.924 18.1694 112.737 17.8879C112.551 17.6065 112.306 17.3652 111.999 17.1715C111.692 16.9778 111.337 16.8133 110.942 16.6744C110.544 16.5355 110.127 16.3929 109.692 16.2358C109.14 16.0493 108.647 15.8556 108.212 15.6582C107.777 15.4609 107.404 15.2379 107.097 14.9893C106.79 14.7408 106.556 14.4557 106.395 14.134C106.235 13.8124 106.154 13.4359 106.154 13.0046C106.154 12.0213 106.531 11.2757 107.287 10.7639C108.044 10.2559 109.093 10 110.438 10C110.796 10 111.151 10.0219 111.494 10.0658C111.842 10.1097 112.163 10.1681 112.467 10.2412C112.77 10.3143 113.044 10.3948 113.293 10.4825C113.541 10.5702 113.75 10.6652 113.918 10.7639L113.457 11.7106C113.084 11.4913 112.635 11.3122 112.101 11.1806C111.567 11.049 110.997 10.9832 110.38 10.9832C109.956 10.9832 109.568 11.0198 109.217 11.0892C108.866 11.1624 108.559 11.2793 108.303 11.4365C108.047 11.5973 107.846 11.7984 107.697 12.0433C107.55 12.2882 107.477 12.5806 107.477 12.9242C107.477 13.2677 107.554 13.5784 107.708 13.8197C107.861 14.0646 108.077 14.2729 108.351 14.4484C108.625 14.6238 108.95 14.7846 109.323 14.9309C109.696 15.0734 110.098 15.2233 110.533 15.3804C111.059 15.5669 111.556 15.7569 112.024 15.9433C112.492 16.1298 112.898 16.3527 113.245 16.6086C113.592 16.8645 113.867 17.1715 114.071 17.537C114.276 17.9025 114.378 18.3485 114.378 18.8821C114.378 19.9202 113.958 20.7024 113.121 21.2214C112.28 21.7405 111.143 22 109.711 22C109.199 22 108.731 21.9708 108.307 21.9159C107.883 21.8611 107.507 21.7917 107.174 21.7076C106.841 21.6235 106.56 21.5394 106.33 21.4517C106.099 21.364 105.92 21.2872 105.792 21.2178L106.216 20.2382C106.344 20.304 106.516 20.3807 106.735 20.4721C106.955 20.5599 107.21 20.6476 107.503 20.728C107.799 20.8121 108.132 20.8815 108.501 20.9363C108.874 20.9912 109.283 21.0204 109.733 21.0204H109.725Z" fill="white"/>
<defs>
<radialGradient id="paint0_radial_117_4470" cx="0" cy="0" r="1" gradientUnits="userSpaceOnUse" gradientTransform="translate(18.2629 22.7173) scale(17.5284 17.5284)">
<stop offset="0.19" stop-color="#DEB965"/>
<stop offset="0.43" stop-color="#C99E46"/>
<stop offset="0.64" stop-color="#B48328"/>
<stop offset="0.96" stop-color="#9E7422"/>
</radialGradient>
<radialGradient id="paint1_radial_117_4470" cx="0" cy="0" r="1" gradientUnits="userSpaceOnUse" gradientTransform="translate(16.2704 23.0437) rotate(-180) scale(16.3213 16.3213)">
<stop offset="0.19" stop-color="#DEB965"/>
<stop offset="0.43" stop-color="#C99E46"/>
<stop offset="0.64" stop-color="#B48328"/>
<stop offset="0.96" stop-color="#9E7422"/>
</radialGradient>
<linearGradient id="paint2_linear_117_4470" x1="5.4337" y1="19.1946" x2="9.28282" y2="18.0045" gradientUnits="userSpaceOnUse">
<stop offset="0.07" stop-color="#B48328"/>
<stop offset="0.85" stop-color="#4D3908"/>
</linearGradient>
<linearGradient id="paint3_linear_117_4470" x1="26.6889" y1="19.1504" x2="23.0234" y2="18.1507" gradientUnits="userSpaceOnUse">
<stop offset="0.07" stop-color="#B48328"/>
<stop offset="0.85" stop-color="#4D3908"/>
</linearGradient>
<linearGradient id="paint4_linear_117_4470" x1="18.1098" y1="11.7275" x2="15.8351" y2="14.0057" gradientUnits="userSpaceOnUse">
<stop offset="0.07" stop-color="#B48328"/>
<stop offset="0.85" stop-color="#4D3908"/>
</linearGradient>
</defs>
</svg>
